<?xml version="1.0" encoding="utf-8"?>
<!-- Generator: Adobe Illustrator 26.5.0, SVG Export Plug-In . SVG Version: 6.00 Build 0)  -->
<svg version="1.1" id="Capa_1" xmlns="http://www.w3.org/2000/svg" xmlns:xlink="http://www.w3.org/1999/xlink" x="0px" y="0px"
	 viewBox="0 0 168.3 78.5" style="enable-background:new 0 0 168.3 78.5;" xml:space="preserve">
<style type="text/css">
	.st0{fill-rule:evenodd;clip-rule:evenodd;fill:#E52521;}
	.st1{fill:#E52521;}
	.st2{font-family:'BebasNeueBold';}
	.st3{font-size:36px;}
</style>
<g>
	<g>
		<path class="st0" d="M37.6,56.5L52,71c0.7,0.6,0.7,1.7,0,2.4c-0.6,0.6-1.7,0.6-2.4,0L35.2,58.9L20.8,73.3c-0.7,0.6-1.7,0.6-2.4,0
			c-0.6-0.6-0.6-1.7,0-2.4l14.4-14.4C17.1,40.8,18.3,42,18.1,41.6c-0.2-0.4-0.1,0-0.1-8.3H15c-2.2,0-2.2-3.3,0-3.3h9.2
			c0.9,0,1.7,0.8,1.7,1.7c0,0.9-0.8,1.7-1.7,1.7h-2.9v3c8.6,5,19.3,5,27.9,0v-3h-2.9c-2.2,0-2.2-3.3,0-3.3h9.2
			c0.9,0,1.7,0.8,1.7,1.7c0,0.9-0.8,1.7-1.7,1.7h-2.9v7.6C52.5,41.9,53.2,40.9,37.6,56.5z M35.2,54.2l13.9-14v-0.1
			c-8.8,4.4-19.1,4.4-27.9,0C21.3,40.3,20.2,39.2,35.2,54.2z M18,13.4h-5.6c-0.9,0-1.7-0.8-1.7-1.7c0-0.9,0.8-1.7,1.7-1.7h7
			c10.3-3.5,21.5-3.5,31.8,0h7c0.9,0,1.7,0.7,1.7,1.7c0,0.9-0.8,1.7-1.7,1.7h-5.6v14.3c0,1.1-0.9,1.8-2,1.7c-17.1-2.9-29.9,0-30.8,0
			c-0.9,0.1-1.7-0.7-1.8-1.5C18,27.8,18,28.7,18,13.4z M21.3,25.8c9.2-1.4,18.6-1.4,27.9,0V13c-9.1-2.9-18.8-2.9-27.9,0V25.8z"/>
		<path class="st0" d="M34.3,21.4c-0.8-3.6,1.2-5.7,1.1-8.4c0-1.1-1.2-1.3-2-1.3c-3.1,0.1-6.2,0.6-9.2,1.3c-0.8,0.2-2,1.6-2,2.9
			c0,9.4-0.4,8.9,2.4,8.6C34.4,23.4,35,24.9,34.3,21.4L34.3,21.4z"/>
	</g>
	<g>
		<g>
			<g>
				<text transform="matrix(1.03 0 0 1 70.7104 37.7344)"><tspan x="0" y="0" class="st1 st2 st3">Search</tspan><tspan x="1.7" y="30" class="st1 st2 st3">Movies</tspan></text>
			</g>
		</g>
	</g>
</g>
</svg>
