<?xml version="1.0" encoding="utf-8"?>
<!-- Generator: Adobe Illustrator 26.5.0, SVG Export Plug-In . SVG Version: 6.00 Build 0)  -->
<svg version="1.1" id="Capa_1" xmlns="http://www.w3.org/2000/svg" xmlns:xlink="http://www.w3.org/1999/xlink" x="0px" y="0px"
	 viewBox="0 0 512 512" style="enable-background:new 0 0 512 512;" xml:space="preserve">
<style type="text/css">
	.st0{fill-rule:evenodd;clip-rule:evenodd;fill:#E52521;}
</style>
<g>
	<g>
		<path class="st0" d="M268.4,375.7l108.8,108.8c4.9,4.9,4.9,12.9,0,17.8c-4.9,4.9-12.9,4.9-17.8,0L250.6,393.5L141.8,502.3
			c-4.9,4.9-12.9,4.9-17.8,0c-4.9-4.9-4.9-12.9,0-17.8l108.8-108.8C113.9,256.8,122.7,266.2,121.3,262.8c-1.3-3.3-0.9-0.3-0.9-62.3
			H98.2c-16.6,0-16.7-25.2,0-25.2h69.4c6.9,0,12.6,5.7,12.6,12.6c0,7-5.7,12.6-12.6,12.6h-22.1V223c64.9,38,145.3,38,210.2,0v-22.5
			h-22.1c-16.6,0-16.7-25.2,0-25.2H403c6.9,0,12.6,5.7,12.6,12.6c0,7-5.7,12.6-12.6,12.6h-22.1V258
			C380.9,265.4,386.2,257.9,268.4,375.7z M250.6,357.9l105.1-105.1v-1c-66,33.4-144.1,33.4-210.2,0
			C145.5,253.3,137.5,244.7,250.6,357.9z M120.3,50.9H78c-6.9,0-12.6-5.7-12.6-12.6c0-7,5.7-12.6,12.6-12.6h52.8
			c77.7-26.3,161.9-26.3,239.6,0h52.8c6.9,0,12.6,5.6,12.6,12.6c0,6.9-5.7,12.6-12.6,12.6h-42.3v107.8c0,8.1-7.1,13.9-14.8,12.5
			c-128.8-21.7-225.7-0.2-232.1,0.2c-7,0.7-13.2-4.9-13.6-11.5C120.3,159.3,120.3,166,120.3,50.9z M145.5,144.1
			c69.7-10.3,140.5-10.3,210.2,0V47.4c-68.4-21.6-141.8-21.6-210.2,0V144.1z"/>
		<path class="st0" d="M243.3,110.9c-5.8-27.1,8.9-43.1,8.3-63.5c-0.2-7.9-9.1-9.7-14.9-9.5c-23.4,0.9-46.8,4.3-69.6,10.1
			c-6.3,1.6-15.2,12.3-15.2,21.9c0,71.2-3,66.9,17.9,64.6C244.3,126.1,249,137.5,243.3,110.9L243.3,110.9z"/>
	</g>
</g>
</svg>
